<svg id="Group_17" data-name="Group 17" xmlns="http://www.w3.org/2000/svg" width="160" height="30" viewBox="0 0 160 30">
  <path id="Path_3" data-name="Path 3" d="M31.816,12.663l-1.105,3.553-1.184,3.632h4.737L33,16.216l-1.105-3.553ZM36,25.058l-1.184-3.395h-6l-1.184,3.395H25.5L30.789,9.9h2.053l5.289,15.158H36Z" transform="translate(-5.368 -2.084)"/>
  <path id="Path_4" data-name="Path 4" d="M47.279,21.9l1.5-5.132L50.989,9.9H53.2L48.305,25.058H46.095L41.2,9.9h2.289L45.7,17.005,47.121,21.9Z" transform="translate(-8.731 -2.084)"/>
  <path id="Path_5" data-name="Path 5" d="M70.274,11.795V25.058H68.221V11.795H63.8V9.9H74.616v1.895Z" transform="translate(-13.52 -2.084)"/>
  <path id="Path_6" data-name="Path 6" d="M81.274,23.116l1.658-2.447L86.563,15.3H88.3V26.195H86.405V18.3h-.158l-1.579,2.526-3.632,5.368H79.3V15.3h1.895v7.816Z" transform="translate(-16.804 -3.221)"/>
  <path id="Path_7" data-name="Path 7" d="M100.526,26.195V16.958H95.395v9.237H93.5V15.3h8.921V26.195Z" transform="translate(-19.813 -3.221)"/>
  <path id="Path_8" data-name="Path 8" d="M114.684,19.463a2.636,2.636,0,0,0-.237-1.184,2.149,2.149,0,0,0-.632-.789,3.064,3.064,0,0,0-.868-.474,4.074,4.074,0,0,0-.868-.158,3.963,3.963,0,0,0-.947.158,2.372,2.372,0,0,0-.868.474,3.091,3.091,0,0,0-.632.789,2.636,2.636,0,0,0-.237,1.184v2.447a2.636,2.636,0,0,0,.237,1.184,2.015,2.015,0,0,0,.553.789,3.064,3.064,0,0,0,.868.474,4,4,0,0,0,1.026.158,2.838,2.838,0,0,0,.868-.158,2.372,2.372,0,0,0,.868-.474,3.091,3.091,0,0,0,.632-.789,2.636,2.636,0,0,0,.237-1.184Zm1.816,2.842a3.67,3.67,0,0,1-.395,1.658,3.817,3.817,0,0,1-1.026,1.263,4.14,4.14,0,0,1-1.421.789,6.487,6.487,0,0,1-3.474,0,3.158,3.158,0,0,1-1.421-.789,3.8,3.8,0,0,1-.947-1.263,3.662,3.662,0,0,1-.316-1.658V19.147a3.67,3.67,0,0,1,.395-1.658,3.8,3.8,0,0,1,.947-1.263,4.14,4.14,0,0,1,1.421-.789A6.157,6.157,0,0,1,112,15.2a6.729,6.729,0,0,1,1.816.237,4.14,4.14,0,0,1,1.421.789,3.8,3.8,0,0,1,.947,1.263,3.662,3.662,0,0,1,.316,1.658Z" transform="translate(-22.779 -3.2)"/>
  <path id="Path_9" data-name="Path 9" d="M123.395,16.958v9.237H121.5V15.3h7.737v1.658Z" transform="translate(-25.744 -3.221)"/>
  <path id="Path_10" data-name="Path 10" d="M134.616,23.784a6.209,6.209,0,0,0,1.737.553,8.791,8.791,0,0,0,1.342.158,2.434,2.434,0,0,0,.789-.079,1.587,1.587,0,0,0,.632-.316,2.756,2.756,0,0,0,.474-.711,4,4,0,0,0,.158-1.026V19.205a2.087,2.087,0,0,0-.553-1.737,1.93,1.93,0,0,0-1.421-.474,2.186,2.186,0,0,0-.711.079,3.849,3.849,0,0,0-.868.316,9.262,9.262,0,0,0-.868.395,6.944,6.944,0,0,0-.789.474v5.526Zm-.158-8.526.237,1.105a9.682,9.682,0,0,1,2.053-1.026,4.81,4.81,0,0,1,1.342-.237,3.43,3.43,0,0,1,3.632,3.868v3.316a3.589,3.589,0,0,1-1.026,2.842,3.633,3.633,0,0,1-2.763,1.026,8.791,8.791,0,0,1-1.342-.158,7.075,7.075,0,0,1-1.895-.553v4.895H132.8V15.258Z" transform="translate(-28.14 -3.179)"/>
  <path id="Path_11" data-name="Path 11" d="M153.584,21.3h-2.842a2.961,2.961,0,0,0-.789.079,1.523,1.523,0,0,0-.789.237c-.237.079-.395.316-.553.474a1.591,1.591,0,0,0-.237.868,1.246,1.246,0,0,0,.553,1.184,2.447,2.447,0,0,0,1.342.395,3.358,3.358,0,0,0,.868-.158,2.828,2.828,0,0,0,.868-.316,2.469,2.469,0,0,0,.789-.395c.237-.158.474-.237.711-.395V21.3Zm-.079,3.868a11.141,11.141,0,0,1-2.132.947,5.364,5.364,0,0,1-1.5.237,3.766,3.766,0,0,1-2.526-.868,3.092,3.092,0,0,1-.947-2.368,2.808,2.808,0,0,1,.395-1.5,4.221,4.221,0,0,1,1.026-1.026,4.4,4.4,0,0,1,1.263-.553,7.872,7.872,0,0,1,1.263-.158h3.158v-.868a1.852,1.852,0,0,0-.632-1.579,2.933,2.933,0,0,0-1.816-.474,11.093,11.093,0,0,0-1.421.158,3.387,3.387,0,0,0-1.658.868l-.947-1.421a5.3,5.3,0,0,1,2.132-1.026,9.532,9.532,0,0,1,1.974-.237,4.576,4.576,0,0,1,3.158.947,3.589,3.589,0,0,1,1.026,2.842v7.184h-1.658l-.158-1.105Z" transform="translate(-31.022 -3.221)"/>
  <path id="Path_12" data-name="Path 12" d="M167.389,23.479a2.7,2.7,0,0,0,1.421-.316,3.159,3.159,0,0,0,.947-.789,2.447,2.447,0,0,0,.474-1.026,6.136,6.136,0,0,0,.158-1.263V19.058a6.911,6.911,0,0,0-.158-1.263,2.154,2.154,0,0,0-.553-1.026,3.159,3.159,0,0,0-.947-.789,3.771,3.771,0,0,0-1.421-.316v7.816Zm-1.895-7.737a2.7,2.7,0,0,0-1.421.316,2.321,2.321,0,0,0-.947.789,4.253,4.253,0,0,0-.553,1.026,6.136,6.136,0,0,0-.158,1.263v1.026a5.372,5.372,0,0,0,.158,1.184,2.447,2.447,0,0,0,.474,1.026,2.155,2.155,0,0,0,.947.711,3.775,3.775,0,0,0,1.5.395Zm0,13.658V25.137a8.994,8.994,0,0,1-2.289-.474,4.212,4.212,0,0,1-1.5-1.026,3.578,3.578,0,0,1-.868-1.5A6.157,6.157,0,0,1,160.6,20.4V19.058a5.307,5.307,0,0,1,.316-1.895,4.028,4.028,0,0,1,.947-1.579,3.814,3.814,0,0,1,1.579-1.105,6.089,6.089,0,0,1,2.211-.474V9.9h1.895v4.105a6.143,6.143,0,0,1,2.211.395,5.451,5.451,0,0,1,1.579,1.026,4.856,4.856,0,0,1,.947,1.5,4.632,4.632,0,0,1,.316,1.816v1.579a4.249,4.249,0,0,1-.316,1.737,4.371,4.371,0,0,1-.947,1.5,4.561,4.561,0,0,1-1.579,1.026,4.807,4.807,0,0,1-2.211.474v4.263h-2.053Z" transform="translate(-34.074 -2.084)"/>
  <path id="Path_13" data-name="Path 13" d="M180.074,23.116l1.658-2.447,3.632-5.368H187.1V26.195h-1.895V18.3h-.158l-1.658,2.526-3.553,5.368H178.1V15.3h1.895v7.816Z" transform="translate(-37.758 -3.221)"/>
  <path id="Path_14" data-name="Path 14" d="M193.911,18.616c0,.553.158.947.553,1.105a2.419,2.419,0,0,0,1.342.316h3V16.958h-3a2.386,2.386,0,0,0-1.263.395,1.355,1.355,0,0,0-.632,1.263m-1.816.079a3.688,3.688,0,0,1,.237-1.342,3.311,3.311,0,0,1,.711-1.105,3,3,0,0,1,1.026-.711,3.825,3.825,0,0,1,1.421-.237h5.132V26.195h-1.895v-4.5h-2.368a2.317,2.317,0,0,0-1.263.316,1.87,1.87,0,0,0-.789,1.342l-.632,2.842H191.7l.711-2.921a4.115,4.115,0,0,1,.474-1.184,1.844,1.844,0,0,1,.947-.789,2.026,2.026,0,0,1-1.342-1.026,3.594,3.594,0,0,1-.395-1.579" transform="translate(-40.621 -3.221)"/>
  <path id="Path_15" data-name="Path 15" d="M1.816,5.526H3.158V28.184H1.816ZM4.974,3.711H6.237V28.184H4.974ZM6.237,0V1.816H3.158V3.632H0V30H27.947V25.421H26.053v2.684H8.132V1.816H26.053V4.5h1.816V0Z"/>
</svg>
